<?xml version="1.0" standalone="no"?>
<!DOCTYPE svg PUBLIC "-//W3C//DTD SVG 20010904//EN"
 "http://www.w3.org/TR/2001/REC-SVG-20010904/DTD/svg10.dtd">
<svg version="1.0" xmlns="http://www.w3.org/2000/svg"
 width="900.000000pt" height="900.000000pt" viewBox="0 0 900.000000 900.000000"
 preserveAspectRatio="xMidYMid meet">
<metadata>
Created by potrace 1.10, written by Peter Selinger 2001-2011
</metadata>
<g transform="translate(0.000000,900.000000) scale(0.100000,-0.100000)"
fill="#ffffff" stroke="none">
<path d="M852 8983 c2 -10 16 -20 33 -24 65 -14 142 -66 232 -156 51 -50 95
-103 99 -117 3 -14 10 -26 15 -26 5 0 9 -6 9 -12 1 -7 9 -31 20 -53 11 -22 19
-50 20 -62 0 -13 4 -23 9 -23 17 0 21 47 21 268 l0 222 -231 0 c-212 0 -230
-1 -227 -17z"/>
<path d="M5287 8933 c-4 -38 -7 -84 -7 -103 0 -19 -6 -47 -14 -62 -8 -14 -17
-46 -21 -70 -6 -41 -28 -119 -46 -163 -102 -257 -242 -447 -444 -599 -82 -62
-219 -146 -238 -146 -7 0 -17 -4 -23 -9 -15 -16 -177 -70 -269 -91 -27 -6 -66
-15 -85 -20 -19 -5 -63 -10 -96 -10 -43 0 -65 -5 -74 -15 -10 -12 -11 -60 -5
-218 14 -390 4 -599 -32 -628 -7 -6 -13 -16 -13 -22 0 -7 -16 -43 -35 -82 -50
-98 -180 -226 -285 -278 -42 -20 -85 -37 -96 -37 -11 0 -26 -6 -32 -12 -10
-10 -204 -16 -840 -24 -518 -7 -845 -16 -874 -22 -43 -10 -64 -19 -108 -44 -8
-4 -22 -11 -30 -15 -22 -9 -89 -64 -137 -113 -57 -57 -120 -153 -134 -203 -6
-23 -13 -48 -15 -54 -2 -7 -8 -13 -14 -13 -7 0 -10 201 -11 618 -1 339 -4 741
-8 892 l-6 275 -205 3 c-113 2 -404 0 -647 -3 l-443 -7 0 -654 0 -654 82 0
c79 0 161 -10 243 -31 22 -6 54 -13 70 -15 17 -3 45 -12 63 -20 17 -8 49 -21
70 -30 20 -9 44 -20 52 -25 8 -5 21 -11 28 -14 41 -16 39 -15 158 -97 105 -71
314 -282 314 -317 0 -6 4 -11 8 -11 5 0 14 -10 21 -22 6 -13 20 -36 31 -53 10
-16 31 -54 45 -82 15 -29 30 -55 36 -58 5 -4 9 -16 9 -28 0 -12 7 -31 15 -41
8 -11 15 -31 15 -44 0 -13 5 -33 11 -44 17 -31 30 -120 37 -253 l7 -120 112
-6 c61 -4 118 -11 125 -15 7 -5 38 -11 68 -15 56 -7 103 -20 153 -45 16 -8 38
-14 49 -14 10 0 26 -7 34 -15 9 -8 24 -15 34 -15 10 0 20 -7 24 -15 3 -8 14
-15 24 -15 10 0 23 -5 29 -11 13 -13 47 -33 81 -48 12 -6 22 -15 22 -21 0 -5
5 -10 11 -10 42 0 316 -280 352 -360 4 -8 16 -28 27 -45 11 -16 24 -40 29 -52
5 -11 15 -24 20 -28 6 -3 11 -17 11 -29 0 -13 7 -29 15 -36 8 -7 15 -23 15
-35 0 -12 7 -28 15 -35 8 -7 15 -25 15 -41 0 -15 6 -34 13 -41 16 -15 27 -102
36 -268 l6 -115 529 -8 c291 -4 536 -5 543 -2 24 9 5 23 -40 30 -52 8 -188 50
-242 75 -22 10 -47 21 -55 25 -8 3 -24 11 -35 18 -11 7 -43 25 -70 41 -162 95
-346 276 -442 436 -32 52 -103 193 -103 203 0 5 -6 23 -13 40 -22 52 -45 129
-52 177 -4 25 -12 51 -19 59 -6 8 -13 59 -16 114 l-5 99 -230 -1 c-126 -1
-236 3 -244 8 -20 13 -4 31 29 31 88 0 240 102 337 227 41 51 88 147 97 194 5
30 10 36 25 32 16 -4 20 3 26 39 4 23 14 52 21 63 8 11 14 26 14 33 0 19 64
113 117 173 70 77 161 134 298 185 71 27 307 27 380 0 125 -46 210 -100 293
-188 49 -52 110 -142 118 -174 4 -13 10 -27 15 -30 5 -3 9 -15 9 -27 0 -12 5
-29 10 -37 25 -38 30 24 30 395 0 209 0 385 0 391 0 8 181 13 613 17 515 6
634 5 752 -8 193 -21 255 -31 293 -44 83 -29 99 -34 124 -38 15 -3 33 -11 39
-19 6 -8 17 -14 24 -14 11 0 48 -18 160 -79 54 -29 149 -103 224 -175 148
-143 272 -335 331 -516 12 -36 26 -69 31 -75 5 -5 9 -24 9 -42 0 -19 7 -50 15
-70 10 -23 15 -69 15 -134 l0 -99 95 0 c62 0 108 -5 132 -15 19 -8 50 -15 67
-15 17 -1 42 -7 56 -15 14 -8 34 -14 45 -15 11 0 33 -7 49 -15 15 -8 33 -15
38 -15 13 0 153 -68 213 -104 117 -70 266 -201 357 -316 50 -63 143 -219 169
-282 11 -29 25 -62 30 -73 44 -101 58 -171 67 -335 l7 -125 490 -8 c270 -4
509 -5 533 -2 50 7 47 22 -6 30 -198 30 -491 197 -660 375 -42 44 -141 173
-172 224 -24 40 -100 191 -100 200 0 3 -5 17 -12 33 -18 43 -37 111 -52 183
-8 36 -19 83 -25 105 -6 22 -11 68 -11 103 l0 62 -239 0 c-190 0 -241 3 -250
14 -15 18 3 31 54 39 22 4 41 11 43 17 2 5 10 10 19 10 30 0 127 65 188 125
74 74 155 213 155 265 0 31 19 61 27 43 9 -24 31 -13 38 20 4 17 11 37 15 42
4 6 11 21 15 33 14 47 80 145 134 200 206 211 515 260 786 125 28 -13 57 -31
66 -39 8 -8 23 -14 32 -14 16 0 17 38 15 508 -2 306 -7 507 -12 507 -6 0 -14
-16 -18 -35 -5 -19 -17 -51 -26 -70 -23 -46 -104 -133 -147 -156 -19 -10 -35
-22 -35 -26 0 -5 -12 -8 -27 -8 -16 0 -41 -7 -57 -15 -41 -21 -96 -20 -96 3
-1 9 -3 42 -7 72 -3 30 -6 115 -7 188 l-1 133 -199 4 c-110 3 -203 8 -208 13
-8 8 17 134 33 162 5 8 15 29 23 46 18 40 113 134 149 146 15 6 27 14 27 19 0
5 13 9 28 9 16 0 37 7 48 15 21 16 189 22 198 6 3 -4 20 -11 38 -15 55 -10
100 -38 163 -101 63 -62 91 -107 101 -162 4 -18 13 -33 20 -33 12 0 14 48 14
274 l0 273 -536 8 c-294 4 -538 5 -540 2 -3 -3 -7 -297 -8 -655 -2 -358 -6
-654 -9 -659 -3 -5 -184 -10 -402 -11 -337 -1 -399 -4 -418 -17 -12 -8 -30
-15 -40 -15 -9 0 -20 -7 -23 -15 -4 -8 -18 -15 -34 -15 -15 0 -33 -7 -40 -15
-7 -8 -19 -15 -27 -15 -51 0 -263 -228 -263 -283 0 -8 -6 -20 -14 -27 -8 -6
-16 -24 -18 -38 -4 -34 -30 -35 -38 -2 -3 14 -2 160 2 325 8 281 6 613 -8
1198 l-5 247 23 0 c468 2 559 1 575 -8 16 -10 16 -12 -10 -21 -16 -6 -35 -11
-43 -11 -8 0 -40 -26 -71 -58 -46 -46 -62 -70 -76 -118 -9 -32 -17 -62 -17
-67 0 -4 132 -6 293 -5 l292 3 -3 30 c-6 50 -43 117 -92 165 -42 41 -83 61
-176 85 -12 4 -24 60 -24 117 0 44 -18 95 -68 198 -28 57 -58 96 -122 160
-120 120 -241 178 -395 189 l-80 6 4 333 4 332 -650 0 -650 0 -6 -67z m543
-1243 c-8 -5 -23 -10 -32 -10 -10 0 -18 -7 -18 -15 0 -8 -14 -17 -37 -21 -41
-7 -124 -45 -188 -86 -41 -26 -165 -146 -165 -159 0 -5 -13 -28 -30 -52 -16
-25 -30 -51 -30 -59 0 -8 -7 -23 -15 -34 -8 -10 -15 -27 -15 -36 0 -9 -5 -29
-11 -45 -21 -57 -29 4 -29 243 0 194 3 244 14 253 10 8 86 12 248 12 128 0
240 4 248 9 8 5 29 10 45 10 23 0 27 -3 15 -10z m-1258 -37 c14 -13 18 -31 18
-88 0 -47 5 -78 15 -91 8 -10 15 -31 15 -45 0 -15 7 -32 15 -39 8 -7 15 -20
15 -29 0 -9 5 -22 11 -28 13 -13 33 -47 48 -80 6 -13 15 -23 21 -23 5 0 10 -4
10 -10 0 -11 36 -50 48 -50 4 -1 18 -14 32 -30 13 -17 28 -30 33 -30 5 0 26
-13 47 -30 21 -16 47 -30 58 -30 11 0 22 -7 26 -15 3 -8 17 -15 31 -15 14 0
36 -6 48 -14 12 -7 58 -16 102 -20 113 -8 116 -13 113 -175 l-3 -126 -65 1
c-80 0 -199 19 -213 33 -6 6 -20 11 -30 11 -10 0 -33 6 -50 14 -64 29 -123 58
-142 69 -32 20 -80 51 -85 57 -3 3 -21 17 -40 31 -164 122 -322 386 -351 584
-19 125 -21 155 -16 170 10 23 262 22 289 -2z m-4282 -53 c-19 -13 -30 -13
-30 0 0 6 10 10 23 10 18 0 19 -2 7 -10z m8394 -121 c-7 -12 -41 -11 -49 1
-12 19 5 30 30 18 13 -6 22 -15 19 -19z m-204 1 c0 -5 -12 -10 -26 -10 -14 0
-23 4 -19 10 3 6 15 10 26 10 10 0 19 -4 19 -10z m-2472 -219 c74 -38 131
-126 132 -201 1 -87 -78 -186 -166 -210 -62 -18 -144 -1 -194 38 -42 34 -90
124 -90 169 0 75 57 165 130 203 48 26 139 26 188 1z m-1964 -235 c-10 -26
-24 -7 -24 32 l1 37 14 -27 c8 -15 12 -34 9 -42z m-34 -256 c0 -11 -4 -20 -10
-20 -5 0 -10 9 -10 20 0 11 5 20 10 20 6 0 10 -9 10 -20z m726 -369 c16 -11
14 -12 -15 -7 -18 3 -42 6 -52 6 -11 0 -19 6 -19 14 0 16 52 8 86 -13z m3259
-21 c3 -5 -3 -10 -15 -10 -12 0 -18 5 -15 10 3 6 10 10 15 10 5 0 12 -4 15
-10z m-331 -266 c14 -5 16 -34 16 -215 l0 -209 -54 0 c-91 0 -156 20 -217 66
-54 41 -109 103 -109 122 0 6 -6 12 -13 15 -22 8 -48 202 -30 220 8 9 386 9
407 1z m-5290 -25 c6 -5 10 -94 10 -199 l1 -190 -50 0 c-109 0 -209 60 -294
175 -43 58 -61 112 -61 181 l0 49 192 -3 c106 -2 197 -7 202 -13z m4287 -891
c2 -21 -1 -38 -6 -39 -14 -1 -29 56 -21 77 10 25 24 5 27 -38z m7 -106 c3 -17
-2 -22 -17 -22 -14 0 -21 6 -21 18 0 38 33 41 38 4z"/>
<path d="M627 8894 c-3 -11 -8 -40 -12 -66 -3 -26 -10 -50 -16 -53 -5 -4 -9
-14 -9 -24 0 -23 -95 -167 -139 -209 -54 -53 -130 -107 -186 -132 -27 -12 -60
-27 -72 -33 -12 -5 -47 -12 -77 -16 -31 -3 -58 -10 -59 -14 -2 -9 97 -46 125
-47 54 -1 227 -116 303 -202 57 -66 125 -202 134 -271 11 -80 28 -98 49 -52 7
14 12 40 12 57 0 42 62 169 119 244 80 106 224 204 330 224 24 4 47 14 52 21
7 12 -37 14 -256 17 l-265 2 -1 43 c0 23 -1 146 -2 274 -1 159 -6 236 -14 244
-8 8 -12 6 -16 -7z"/>
<path d="M2642 8195 c-1 -280 -5 -616 -8 -745 -3 -129 -2 -245 1 -257 8 -35
22 -27 29 16 8 52 60 149 116 220 47 57 162 151 186 151 8 0 14 4 14 10 0 5
12 13 27 16 15 4 38 13 52 20 14 8 36 14 47 14 12 0 27 7 34 15 10 13 54 15
276 15 169 0 264 4 264 10 0 6 -15 10 -34 10 -18 0 -53 7 -76 15 -23 8 -53 15
-65 15 -12 0 -28 7 -35 15 -7 8 -23 15 -35 15 -12 0 -28 7 -35 15 -7 8 -20 15
-30 15 -10 0 -23 7 -30 15 -7 8 -20 15 -30 15 -10 0 -23 7 -30 15 -7 8 -18 15
-24 15 -6 0 -26 14 -44 30 -18 17 -36 30 -39 30 -37 0 -314 288 -346 360 -4 8
-16 29 -27 45 -11 17 -24 40 -29 52 -5 11 -15 24 -20 28 -6 3 -11 17 -11 29 0
13 -7 29 -15 36 -8 7 -15 23 -15 35 0 12 -7 28 -15 35 -8 7 -15 27 -15 44 0
17 -6 41 -14 52 -8 11 -16 36 -18 55 -2 19 -4 -195 -6 -476z m498 -473 c0 -8
-58 -32 -78 -32 -20 0 -13 20 11 30 28 11 67 12 67 2z"/>
<path d="M1310 8328 c-1 -7 -1 -615 -1 -635 l1 -23 284 0 c156 0 291 -3 300
-6 27 -11 18 -22 -25 -29 -31 -5 -54 -20 -100 -65 -32 -32 -59 -63 -59 -70 0
-7 -7 -27 -16 -45 -15 -33 -16 -82 -1 -77 4 1 133 2 287 2 l280 0 0 25 c0 13
-12 50 -27 80 -35 76 -102 132 -184 158 -35 10 -67 24 -71 31 -4 6 -8 34 -8
62 0 165 -133 386 -294 489 -94 60 -228 105 -312 105 -30 0 -54 -1 -54 -2z"/>
<path d="M1910 7244 c-39 -8 -91 -34 -132 -66 -41 -32 -98 -138 -98 -182 l0
-26 290 0 290 0 0 34 c0 19 -4 37 -9 40 -5 3 -12 18 -16 33 -10 43 -67 106
-122 135 -49 27 -147 42 -203 32z"/>
<path d="M7175 7241 c-64 -17 -133 -67 -166 -121 -23 -37 -51 -118 -47 -132 3
-9 77 -13 291 -14 l287 -2 0 39 c0 21 -4 40 -9 44 -5 3 -12 18 -16 33 -7 34
-85 112 -135 136 -39 20 -159 29 -205 17z"/>
<path d="M2874 6997 c-2 -7 -3 -100 -2 -207 l3 -195 204 -3 c150 -2 207 1 212
9 15 24 -22 179 -48 207 -7 7 -13 17 -13 21 0 8 -76 86 -102 106 -43 32 -171
75 -222 75 -15 0 -29 -6 -32 -13z"/>
<path d="M4530 5812 c-31 -21 -59 -53 -60 -68 0 -6 -7 -17 -15 -24 -11 -9 -15
-32 -15 -80 0 -48 4 -71 15 -80 8 -7 15 -18 15 -25 0 -6 15 -26 34 -43 39 -35
105 -49 180 -38 63 10 120 67 133 136 17 83 -3 144 -62 197 -49 43 -50 43
-125 42 -53 0 -82 -5 -100 -17z"/>
<path d="M5276 5709 c-3 -8 -7 -52 -10 -99 -5 -102 -21 -178 -41 -200 -8 -9
-15 -22 -15 -29 0 -43 -192 -261 -229 -261 -5 0 -16 -6 -23 -13 -18 -18 -78
-47 -97 -47 -8 0 -33 -7 -56 -15 -31 -11 -131 -16 -445 -22 l-405 -8 -3 -285
c-2 -268 7 -467 26 -570 30 -158 212 -361 382 -426 55 -20 182 -33 230 -22 19
4 177 8 351 8 l316 0 7 203 c3 111 6 404 5 650 0 247 2 451 4 454 3 2 161 4
351 3 309 -1 347 1 352 15 13 33 -29 196 -75 295 -63 134 -206 270 -341 324
-25 10 -59 24 -77 31 -17 8 -70 17 -117 21 -69 5 -87 4 -90 -7z m-637 -857 c1
-19 7 -46 15 -60 7 -15 22 -45 32 -67 39 -84 129 -187 209 -240 64 -43 144
-85 161 -85 7 0 28 -6 46 -14 18 -8 47 -18 63 -22 27 -6 28 -7 10 -14 -11 -5
-34 -9 -52 -9 -28 -1 -100 -31 -206 -88 -15 -8 -54 -39 -86 -69 -93 -86 -172
-218 -196 -328 -14 -64 -20 -1 -25 247 l-5 262 -238 1 c-130 0 -240 4 -244 8
-10 10 17 26 45 26 26 0 118 48 177 93 117 90 213 230 240 351 3 15 13 39 22
53 16 24 17 24 24 7 4 -11 8 -34 8 -52z"/>
<path d="M0 5370 l0 -340 345 0 c335 0 345 1 345 19 0 11 -4 23 -10 26 -5 3
-10 36 -10 73 -1 43 -6 74 -15 86 -8 11 -15 29 -15 41 0 12 -7 30 -15 41 -8
10 -15 27 -15 37 0 10 -7 20 -15 23 -8 4 -15 10 -15 15 0 18 -70 109 -109 143
-13 12 -31 28 -40 37 -9 9 -23 19 -31 23 -8 3 -28 15 -45 26 -16 11 -37 22
-45 26 -8 3 -27 12 -42 20 -14 8 -34 14 -45 14 -10 0 -27 7 -37 15 -14 10 -45
15 -103 15 l-83 0 0 -340z m640 -270 c0 -5 0 -13 0 -17 -1 -7 -41 -5 -49 2 -1
2 0 8 4 14 8 14 45 14 45 1z"/>
<path d="M1240 4364 c-51 -10 -154 -36 -169 -43 -129 -62 -201 -116 -271 -203
-39 -49 -56 -77 -101 -170 -12 -24 -29 -99 -43 -183 l-11 -70 -315 -1 c-173
-1 -318 -3 -322 -3 -4 -1 -8 -291 -8 -646 l0 -645 249 0 c147 0 252 -4 256 -9
6 -11 -25 -31 -49 -31 -29 0 -150 -63 -211 -109 -88 -68 -141 -131 -191 -231
-51 -102 -54 -131 -54 -560 l0 -400 43 0 c58 0 192 -18 252 -35 86 -23 184
-55 203 -64 9 -5 37 -18 62 -30 85 -41 149 -78 207 -122 54 -40 74 -57 144
-120 45 -41 153 -171 184 -224 17 -27 36 -59 42 -70 30 -49 82 -165 98 -215
10 -30 24 -67 31 -82 8 -14 14 -42 14 -62 l0 -36 604 0 604 0 18 28 c31 45 54
91 54 106 0 7 7 19 15 26 9 7 15 29 15 54 0 55 14 76 29 47 16 -30 28 -26 36
11 4 18 20 58 34 88 76 154 171 250 311 317 116 56 163 66 294 65 129 0 193
-15 299 -68 121 -60 249 -191 297 -304 6 -14 15 -34 20 -45 5 -11 12 -35 15
-53 4 -18 11 -30 16 -26 10 6 11 1095 1 1505 -7 259 -2 462 11 476 12 12 18
-4 28 -72 8 -62 17 -93 56 -214 22 -69 88 -200 140 -279 129 -194 306 -348
528 -458 49 -24 97 -44 107 -44 9 0 19 -4 22 -9 4 -5 25 -12 49 -16 23 -4 49
-11 58 -16 30 -16 133 -29 334 -45 259 -19 325 -27 352 -42 12 -7 34 -12 50
-12 15 0 37 -7 47 -15 11 -8 30 -15 42 -15 12 0 27 -7 34 -15 7 -8 17 -15 23
-15 13 0 79 -33 122 -61 17 -10 37 -22 45 -26 8 -3 31 -19 51 -35 20 -15 39
-28 42 -28 27 0 277 -260 277 -287 0 -7 5 -13 10 -13 6 0 15 -10 20 -22 6 -13
19 -36 30 -53 11 -16 24 -39 30 -50 5 -11 15 -29 22 -40 23 -41 28 -50 34 -65
3 -8 11 -28 19 -45 7 -16 16 -41 18 -55 3 -14 10 -43 16 -65 5 -22 13 -57 16
-78 l6 -37 600 0 c559 0 601 1 619 18 23 21 75 126 84 168 4 18 15 34 25 37
11 2 22 20 29 43 19 72 36 109 81 177 91 140 209 227 381 283 77 24 273 24
350 0 66 -22 144 -58 185 -86 17 -11 38 -20 48 -20 16 0 17 20 17 285 0 278 0
285 -20 285 -11 0 -20 -4 -20 -8 0 -13 -117 -70 -189 -92 -58 -18 -94 -20
-415 -21 -550 -2 -1236 -16 -1291 -26 -45 -8 -154 -54 -180 -75 -5 -5 -31 -24
-57 -43 -88 -66 -208 -240 -208 -303 0 -19 -16 -39 -25 -31 -1 2 -5 404 -8
892 -3 489 -8 891 -12 895 -10 10 -615 12 -978 4 l-308 -7 -5 -250 c-3 -137
-7 -356 -7 -485 l-2 -235 -70 1 c-128 2 -234 29 -368 95 -75 37 -101 52 -113
63 -6 6 -22 18 -35 26 -55 36 -182 160 -203 198 -5 10 -12 19 -15 22 -6 5 -34
46 -56 82 -34 56 -85 174 -85 196 0 10 -5 23 -10 28 -12 12 -32 139 -34 214
l-1 55 491 3 492 2 6 23 c8 29 8 996 0 1036 -9 45 -21 38 -29 -16 -11 -77 -48
-187 -98 -293 -91 -191 -229 -362 -392 -484 -78 -59 -219 -146 -235 -146 -6 0
-21 -6 -33 -14 -25 -16 -188 -69 -262 -86 -27 -6 -67 -15 -89 -21 -46 -12
-808 -14 -1210 -4 -229 6 -280 5 -287 -6 -5 -8 -9 -303 -9 -657 1 -353 -2
-647 -5 -652 -4 -6 -152 -10 -388 -10 -348 -1 -387 -2 -437 -20 -30 -10 -56
-23 -58 -29 -2 -6 -12 -11 -23 -11 -35 0 -139 -64 -202 -125 -64 -62 -137
-162 -137 -188 0 -8 -6 -20 -14 -27 -8 -6 -16 -25 -18 -42 -2 -18 -9 -33 -15
-36 -27 -8 -32 50 -27 270 7 321 7 949 -1 1266 l-7 272 290 0 c160 0 297 -3
306 -6 25 -9 19 -21 -14 -27 -73 -15 -151 -91 -184 -179 -31 -84 -47 -79 274
-79 l285 0 3 25 c5 41 -45 132 -98 178 -35 30 -68 48 -114 61 -71 21 -76 28
-76 107 0 109 -87 287 -190 391 -68 68 -184 140 -258 158 -20 6 -55 15 -77 20
-22 6 -64 11 -94 11 l-54 0 6 158 c4 86 7 235 7 330 l0 173 328 -3 327 -3 -2
65 c-2 79 -41 202 -88 280 -38 62 -109 140 -170 187 -48 37 -160 90 -229 109
-55 15 -195 26 -236 18z m2106 -2157 c6 -6 -46 -14 -98 -16 -37 -2 -51 12 -25
22 14 7 116 2 123 -6z m64 -78 c96 -29 219 -127 242 -191 6 -16 14 -28 19 -28
5 0 9 -10 9 -22 0 -13 7 -36 15 -52 21 -40 19 -168 -4 -231 -26 -74 -43 -107
-71 -139 -51 -59 -89 -91 -118 -100 -12 -4 -22 -11 -22 -16 0 -4 -17 -11 -37
-15 -21 -4 -43 -11 -50 -16 -6 -6 -30 -12 -52 -14 -33 -4 -41 -1 -46 15 -4 11
-8 106 -9 210 l-3 190 -201 4 c-110 2 -206 7 -211 10 -12 8 -4 59 16 96 7 14
13 37 13 53 0 15 4 27 9 27 5 0 18 18 29 39 25 48 82 106 131 132 20 11 43 24
51 29 65 38 198 47 290 19z m-2685 -154 c63 -30 97 -72 119 -144 14 -48 14
-59 1 -106 -22 -74 -72 -129 -143 -155 -50 -19 -63 -20 -108 -11 -28 7 -70 25
-92 42 -49 36 -92 119 -92 178 0 81 56 164 137 202 55 25 115 23 178 -6z
m1983 -243 c2 -15 -2 -22 -12 -22 -11 0 -16 9 -16 26 0 31 23 28 28 -4z m1063
-47 c-9 -30 -9 -30 -10 10 -1 25 2 36 9 29 6 -6 6 -21 1 -39z m-1053 -583 c2
-7 -6 -12 -17 -12 -21 0 -27 11 -14 24 9 9 26 2 31 -12z m-334 -268 c14 -5 16
-34 16 -215 l0 -209 -62 0 c-81 0 -178 20 -178 37 0 7 -6 13 -13 13 -14 0
-100 83 -135 130 -32 43 -58 221 -35 243 8 9 386 9 407 1z m5269 -26 c15 -8
17 -28 17 -197 0 -212 2 -206 -73 -195 -109 16 -195 69 -263 162 -51 69 -73
128 -74 198 l0 41 188 0 c103 0 195 -4 205 -9z"/>
<path d="M6475 4350 c-11 -5 -31 -9 -45 -9 -14 -1 -38 -8 -54 -16 -15 -8 -33
-15 -38 -15 -6 0 -38 -16 -72 -36 -115 -69 -240 -215 -284 -334 -20 -53 -42
-160 -42 -202 l0 -38 82 0 c82 0 124 -9 188 -39 158 -74 326 -263 346 -392 4
-21 10 -39 14 -39 16 0 20 51 20 262 l0 217 318 0 c174 0 323 0 330 1 18 0 15
86 -4 151 -41 137 -90 224 -170 302 -55 55 -190 147 -214 147 -9 0 -20 4 -26
10 -27 27 -303 51 -349 30z"/>
<path d="M5907 3603 c-4 -3 -7 -22 -7 -42 0 -20 -7 -49 -15 -65 -8 -15 -15
-33 -15 -38 0 -27 -82 -141 -150 -209 -55 -55 -95 -84 -146 -108 -38 -18 -78
-37 -89 -43 -11 -6 -46 -14 -78 -17 -32 -3 -58 -10 -59 -16 -3 -14 41 -33 103
-45 29 -6 55 -14 58 -19 4 -4 17 -12 31 -16 49 -15 136 -78 202 -147 49 -50
79 -94 112 -161 26 -51 46 -105 46 -120 0 -28 29 -97 41 -97 9 0 19 38 19 80
0 20 19 72 47 129 38 78 61 110 128 176 88 88 122 115 142 115 7 0 13 4 13 10
0 5 12 13 28 16 15 4 32 10 37 15 6 4 33 12 60 16 34 6 50 13 50 23 0 13 -39
15 -262 18 l-263 2 0 259 c0 143 -3 266 -6 275 -7 17 -16 20 -27 9z"/>
<path d="M7933 2906 c-1 -238 2 -447 6 -464 7 -21 5 -34 -5 -44 -11 -11 -15
-64 -18 -243 -4 -225 -2 -275 14 -275 4 0 10 18 14 40 7 42 50 131 93 190 38
52 116 130 129 130 7 0 14 6 17 13 2 7 22 21 43 32 21 11 45 26 52 33 7 6 19
12 27 12 7 0 26 7 41 15 16 8 39 15 50 15 12 0 27 7 34 15 10 13 53 15 267 15
167 0 252 3 248 10 -3 6 -19 10 -34 10 -16 0 -48 7 -71 15 -23 8 -53 15 -65
15 -12 0 -28 7 -35 15 -7 8 -23 15 -35 15 -13 0 -25 7 -29 15 -3 8 -14 15 -24
15 -11 0 -25 7 -32 15 -7 8 -20 15 -30 15 -10 0 -23 7 -30 15 -7 8 -17 15 -22
15 -13 0 -167 117 -200 152 -15 15 -32 28 -37 28 -6 0 -11 4 -11 8 0 5 -19 29
-43 53 -55 57 -107 124 -107 138 0 6 -5 11 -10 11 -6 0 -15 10 -20 23 -6 12
-19 36 -30 52 -11 17 -25 42 -31 58 -6 15 -15 27 -20 27 -5 0 -9 9 -9 19 0 11
-6 32 -14 48 -34 70 -45 100 -48 127 -2 16 -8 31 -13 33 -7 2 -11 -137 -12
-431z m479 -476 c-21 -13 -49 -20 -80 -19 l-47 1 60 18 c85 25 109 25 67 0z"/>
<path d="M6590 2720 l0 -330 284 0 c156 0 291 -3 300 -6 24 -9 19 -21 -10 -28
-43 -11 -117 -64 -145 -104 -30 -43 -63 -126 -56 -145 3 -9 70 -12 290 -12
l287 -1 0 31 c0 65 -74 172 -142 207 -18 9 -51 22 -73 28 -62 16 -65 20 -75
111 -25 225 -164 415 -380 518 -65 31 -180 60 -242 61 l-38 0 0 -330z"/>
<path d="M1910 1960 c-74 -13 -149 -64 -183 -125 -32 -60 -49 -104 -45 -125
l3 -22 285 0 285 1 3 26 c2 15 -4 42 -12 60 -9 18 -16 36 -16 40 0 5 -16 27
-34 50 -61 74 -180 113 -286 95z"/>
<path d="M7125 1937 c-68 -36 -128 -105 -148 -175 -11 -33 -16 -66 -12 -72 4
-7 100 -10 291 -10 l284 1 0 33 c0 81 -77 186 -165 225 -65 29 -192 28 -250
-2z"/>
<path d="M8162 1718 c-9 -9 -12 -68 -12 -205 0 -180 1 -193 19 -203 12 -6 96
-10 204 -10 212 0 212 0 202 77 -23 170 -137 293 -313 337 -76 19 -85 19 -100
4z"/>
<path d="M4525 536 c-22 -12 -53 -42 -70 -65 -27 -38 -30 -50 -30 -119 1 -59
5 -84 20 -107 46 -73 104 -105 188 -105 50 0 67 5 106 31 52 36 69 56 93 114
22 53 22 83 -1 136 -23 51 -63 97 -108 122 -47 26 -147 23 -198 -7z"/>
<path d="M0 221 l0 -221 320 0 c176 0 320 3 320 7 0 20 -57 115 -103 173 -120
147 -283 237 -464 255 l-73 7 0 -221z"/>
<path d="M5290 428 c-1 -2 -3 -42 -6 -90 -4 -57 -12 -99 -25 -124 -10 -21 -19
-45 -20 -54 0 -14 -20 -55 -62 -129 l-18 -31 381 0 c316 0 380 2 380 14 0 7
-7 19 -15 26 -8 7 -15 19 -15 27 0 15 -50 88 -92 134 -16 16 -28 34 -28 39 0
6 -7 10 -15 10 -8 0 -15 4 -15 9 0 4 -19 21 -42 37 -24 16 -44 32 -46 37 -2 4
-9 7 -17 7 -7 0 -18 7 -25 15 -7 8 -23 15 -37 15 -13 0 -31 7 -39 15 -9 8 -25
15 -38 15 -12 0 -31 7 -42 15 -12 9 -44 14 -91 15 -40 0 -73 -1 -73 -2z"/>
</g>
</svg>
