<?xml version="1.0" standalone="no"?>
<!DOCTYPE svg PUBLIC "-//W3C//DTD SVG 20010904//EN"
 "http://www.w3.org/TR/2001/REC-SVG-20010904/DTD/svg10.dtd">
<svg version="1.0" xmlns="http://www.w3.org/2000/svg"
 width="71.000000pt" height="69.000000pt" viewBox="0 0 71.000000 69.000000"
 preserveAspectRatio="xMidYMid meet">
<metadata>
Created by potrace 1.10, written by Peter Selinger 2001-2011
</metadata>
<g transform="translate(0.000000,69.000000) scale(0.100000,-0.100000)"
fill="#14d2c5" stroke="none">
<path d="M328 624 c-32 -17 -48 -43 -48 -78 0 -91 103 -133 163 -66 43 48 32
116 -22 145 -37 19 -58 19 -93 -1z m93 -33 c35 -36 37 -64 4 -96 -33 -34 -77
-33 -104 1 -24 30 -26 43 -10 78 11 24 41 44 67 45 8 1 27 -12 43 -28z"/>
<path d="M112 544 c-28 -19 -30 -74 -4 -97 25 -23 68 -21 92 3 58 58 -20 142
-88 94z m72 -23 c23 -25 13 -59 -20 -67 -46 -12 -72 37 -38 70 21 21 37 20 58
-3z"/>
<path d="M540 540 c-41 -41 -13 -110 44 -110 41 0 66 26 66 68 0 56 -70 82
-110 42z m74 -16 c9 -8 16 -22 16 -29 0 -18 -27 -45 -45 -45 -16 0 -45 27 -45
42 0 16 31 48 46 48 7 0 20 -7 28 -16z"/>
<path d="M335 412 c-63 -21 -75 -48 -75 -172 0 -101 8 -133 39 -157 19 -15 51
-17 51 -3 0 6 -5 10 -10 10 -6 0 -22 11 -35 25 -23 22 -25 31 -25 123 0 85 3
103 21 126 17 22 28 26 69 26 41 0 52 -4 69 -26 19 -24 21 -40 21 -165 0 -86
4 -139 10 -139 6 0 10 56 10 148 0 167 -6 184 -68 202 -41 11 -48 11 -77 2z"/>
<path d="M95 396 c-16 -12 -20 -29 -23 -95 -4 -75 -2 -81 22 -105 28 -29 46
-33 46 -11 0 8 -6 15 -14 15 -23 0 -28 16 -28 91 0 78 11 99 53 99 45 0 59
-31 59 -132 0 -52 4 -88 10 -88 6 0 10 40 10 100 0 87 -3 103 -20 120 -24 24
-87 27 -115 6z"/>
<path d="M530 390 c-17 -17 -20 -33 -20 -120 0 -60 4 -100 10 -100 6 0 10 38
10 93 0 104 12 127 63 127 40 0 52 -27 49 -110 -3 -61 -7 -73 -23 -77 -20 -6
-27 -33 -9 -33 6 0 22 12 36 26 24 24 26 30 22 105 -3 66 -7 83 -23 95 -28 21
-91 18 -115 -6z"/>
</g>
</svg>
